<svg width="24" height="24" viewBox="0 0 24 24" fill="none" xmlns="http://www.w3.org/2000/svg">
<path d="M12.001 9H12.011M9.17188 15C9.58371 13.8348 10.695 13 12.0012 13C13.3074 13 14.4186 13.8348 14.8305 15M20 12.5V7.2C20 6.0799 20 5.51984 19.782 5.09202C19.5903 4.71569 19.2843 4.40973 18.908 4.21799C18.4802 4 17.9201 4 16.8 4H7.2C6.0799 4 5.51984 4 5.09202 4.21799C4.71569 4.40973 4.40973 4.71569 4.21799 5.09202C4 5.51984 4 6.07989 4 7.2V16.8C4 17.9201 4 18.4802 4.21799 18.908C4.40973 19.2843 4.71569 19.5903 5.09202 19.782C5.51984 20 6.07989 20 7.2 20H12.001M13.001 9C13.001 9.55228 12.5533 10 12.001 10C11.4487 10 11.001 9.55228 11.001 9C11.001 8.44772 11.4487 8 12.001 8C12.5533 8 13.001 8.44772 13.001 9Z" stroke="#2FE4AB" stroke-width="1.2" stroke-linecap="round" stroke-linejoin="round"/>
<path d="M16.8086 20.7053L21.127 17.3467M22 19C22 20.6569 20.6569 22 19 22C17.3431 22 16 20.6569 16 19C16 17.3431 17.3431 16 19 16C20.6569 16 22 17.3431 22 19Z" stroke="#2FE4AB" stroke-width="1.2" stroke-linecap="round" stroke-linejoin="round"/>
</svg>
