<svg width="720" height="224" viewBox="0 0 720 224" fill="none" xmlns="http://www.w3.org/2000/svg">
<g opacity="0.4">
<path d="M73.7136 181.178C71.9214 181.808 69.9619 180.885 69.3407 179.118C68.7195 177.351 69.6702 175.405 71.4624 174.775C73.2546 174.145 75.2141 175.068 75.8353 176.835C76.4566 178.602 75.5058 180.548 73.7136 181.178Z" fill="#16968E"/>
</g>
<g opacity="0.4">
<path d="M121.235 48.6037C118.598 49.3104 115.891 47.773 115.194 45.1728C114.497 42.5726 116.073 39.8877 118.71 39.181C121.347 38.4743 124.054 40.0117 124.751 42.6119C125.448 45.2121 123.872 47.897 121.235 48.6037Z" fill="#16968E"/>
</g>
<g opacity="0.4">
<path d="M141.852 156.094C139.668 157.733 136.583 157.315 134.967 155.162C133.351 153.009 133.812 149.931 135.996 148.292C138.18 146.653 141.265 147.07 142.881 149.223C144.497 151.376 144.036 154.455 141.852 156.094Z" fill="#16968E"/>
</g>
<g opacity="0.4">
<path d="M67.4196 114.793C65.1223 116.269 62.0758 115.628 60.621 113.363C59.1661 111.098 59.85 108.061 62.1473 106.585C64.4446 105.11 67.491 105.75 68.9459 108.015C70.4008 110.28 69.7168 113.317 67.4196 114.793Z" fill="#16968E"/>
</g>
<g opacity="0.4">
<path d="M315.972 35.3082C313.156 35.5414 310.682 33.476 310.452 30.6989C310.222 27.9219 312.323 25.4778 315.139 25.2446C317.956 25.0114 320.43 27.0769 320.66 29.8539C320.89 32.631 318.789 35.0751 315.972 35.3082Z" fill="#16968E"/>
</g>
<g opacity="0.4">
<path d="M131.672 120.284C130.826 120.827 129.704 120.591 129.168 119.757C128.632 118.923 128.884 117.804 129.73 117.261C130.576 116.717 131.698 116.953 132.234 117.787C132.77 118.622 132.518 119.74 131.672 120.284Z" fill="#16968E"/>
</g>
<g opacity="0.4">
<path d="M183.706 25.5947C183.417 26.5578 182.411 27.1082 181.462 26.8229C180.512 26.5377 179.976 25.5241 180.265 24.561C180.555 23.5979 181.56 23.0475 182.51 23.3328C183.46 23.618 183.996 24.6316 183.706 25.5947Z" fill="#16968E"/>
</g>
<g opacity="0.4">
<path d="M311.429 2.76785C311.127 4.41427 309.563 5.50912 307.94 5.21117C306.317 4.91323 305.244 3.33455 305.547 1.68813C305.849 0.0417114 307.412 -1.05314 309.035 -0.755193C310.659 -0.457244 311.731 1.12143 311.429 2.76785Z" fill="#16968E"/>
</g>
<g opacity="0.4">
<path d="M174 171.535C171.294 171.902 168.804 170.033 168.443 167.365C168.082 164.698 169.986 162.234 172.692 161.868C175.397 161.502 177.887 163.371 178.248 166.039C178.609 168.706 176.705 171.169 174 171.535Z" fill="#16968E"/>
</g>
<g opacity="0.4">
<path d="M124.565 130.644L120.863 123.865L117.16 117.086L124.882 117.269L132.604 117.452L128.584 124.048L124.565 130.644Z" fill="#1D5249"/>
</g>
<g opacity="0.4">
<path d="M120.797 91.6395L113.123 90.764L105.449 89.8885L110.044 83.6801L114.639 77.4717L117.718 84.5556L120.797 91.6395Z" fill="#1D5249"/>
</g>
<g opacity="0.4">
<path d="M-5.18717 10.7261L-1.68497 17.6106L1.81722 24.4951L-5.896 24.0858L-13.6092 23.6766L-9.3982 17.2014L-5.18717 10.7261Z" fill="#1D5249"/>
</g>
<g opacity="0.4">
<path d="M293.221 54.5603L290.146 47.4745L287.072 40.3887L294.745 41.2689L302.419 42.1491L297.82 48.3547L293.221 54.5603Z" fill="#1D5249"/>
</g>
<g opacity="0.4">
<path d="M6.55064 52.4332L-0.835284 50.1728L-8.22121 47.9124L-2.57069 42.6462L3.07984 37.38L4.81524 44.9066L6.55064 52.4332Z" fill="#1D5249"/>
</g>
<g opacity="0.4">
<path d="M58.05 205.463L63.3032 207.06C63.3032 207.06 58.0189 196.233 63.4637 190.333C71.2353 181.911 69.0131 172.881 69.0131 172.881L63.4751 171.166C63.4751 171.166 63.8705 178.087 57.4364 187.183C50.7316 196.661 58.05 205.463 58.05 205.463Z" fill="#B6EA5C"/>
</g>
<g opacity="0.4">
<path d="M245.681 104.852L249.886 101.322C249.886 101.322 237.93 99.842 235.957 92.0596C233.14 80.9516 224.361 77.8864 224.361 77.8864L219.902 81.5915C219.902 81.5915 225.917 85.0368 230.028 95.3916C234.312 106.182 245.681 104.852 245.681 104.852Z" fill="#B6EA5C"/>
</g>
<g opacity="0.4">
<path d="M140.552 73.9083L145.805 75.5054C145.805 75.5054 140.521 64.6787 145.966 58.7784C153.737 50.3568 151.515 41.3269 151.515 41.3269L145.977 39.6123C145.977 39.6123 146.372 46.5332 139.938 55.6285C133.234 65.1067 140.552 73.9083 140.552 73.9083Z" fill="#B6EA5C"/>
</g>
<g opacity="0.4">
<path d="M121.357 169.28L126.919 165.259C126.919 165.259 112.147 162.332 110.392 152.451C107.886 138.347 97.2179 133.73 97.2179 133.73L91.3236 137.946C91.3236 137.946 98.5111 142.786 102.699 156.068C107.062 169.909 121.357 169.28 121.357 169.28Z" fill="#B6EA5C"/>
</g>
<g opacity="0.4">
<path d="M135.72 161.476C135.72 161.476 135.34 165.677 130.937 166.586C127.077 167.382 127.076 169.114 127.076 169.114C127.076 169.114 132.177 172.122 134.85 175.785C136.878 178.563 136.617 182.491 136.617 182.491C136.617 182.491 137.004 180.228 142.148 178.022C143.732 177.343 146.691 177.12 146.691 177.12C146.691 177.12 145.051 172.078 142.831 168.616C140.612 165.154 135.72 161.476 135.72 161.476Z" fill="#2FE4AB"/>
</g>
<g opacity="0.4">
<path d="M53.2559 81.6689C53.2559 81.6689 56.8374 83.8972 55.6689 88.2388C54.6444 92.0447 56.1905 92.8242 56.1905 92.8242C56.1905 92.8242 61.1715 89.6207 65.6448 88.8801C69.0382 88.3181 72.4292 90.3172 72.4292 90.3172C72.4292 90.3172 70.5821 88.9538 70.9247 83.3679C71.0303 81.6474 72.1618 78.9038 72.1618 78.9038C72.1618 78.9038 66.9207 78.1021 62.8306 78.5279C58.7404 78.9537 53.2559 81.6689 53.2559 81.6689Z" fill="#2FE4AB"/>
</g>
<g opacity="0.4">
<path d="M36.9498 53.518C36.9498 53.518 37.0825 49.3019 41.4249 48.1366C45.2316 47.1152 45.1311 45.3866 45.1311 45.3866C45.1311 45.3866 39.8623 42.6826 36.979 39.1832C34.7916 36.5287 34.8215 32.5924 34.8215 32.5924C34.8215 32.5924 34.5677 34.8741 29.5626 37.3779C28.021 38.149 25.0798 38.5453 25.0798 38.5453C25.0798 38.5453 27.0134 43.4821 29.4323 46.8078C31.8511 50.1334 36.9498 53.518 36.9498 53.518Z" fill="#2FE4AB"/>
</g>
<g opacity="0.4">
<path d="M171.643 90.4672C171.643 90.4672 171.776 86.2511 176.118 85.0858C179.925 84.0644 179.824 82.3358 179.824 82.3358C179.824 82.3358 174.556 79.6318 171.672 76.1324C169.485 73.4779 169.515 69.5416 169.515 69.5416C169.515 69.5416 169.261 71.8234 164.256 74.3271C162.714 75.0982 159.773 75.4945 159.773 75.4945C159.773 75.4945 161.707 80.4313 164.126 83.757C166.544 87.0827 171.643 90.4672 171.643 90.4672Z" fill="#2FE4AB"/>
<path d="M30.0318 156.554C30.0318 156.554 30.1645 152.338 34.507 151.173C38.3137 150.151 38.2131 148.423 38.2131 148.423C38.2131 148.423 32.9443 145.719 30.061 142.219C27.8736 139.565 27.9035 135.629 27.9035 135.629C27.9035 135.629 27.6497 137.91 22.6446 140.414C21.103 141.185 18.1618 141.581 18.1618 141.581C18.1618 141.581 20.0955 146.518 22.5143 149.844C24.9331 153.17 30.0318 156.554 30.0318 156.554Z" fill="#2FE4AB"/>
</g>
<path d="M240.002 -18.9803C240.002 -18.9803 236.925 -16.0954 233.032 -18.3451C229.62 -20.3173 228.467 -19.0248 228.467 -19.0248C228.467 -19.0248 230.276 -13.3857 229.837 -8.87279C229.504 -5.44935 226.697 -2.68933 226.697 -2.68933C226.697 -2.68933 228.491 -4.1219 233.8 -2.3489C235.434 -1.80281 237.793 -0.00138861 237.793 -0.00138861C237.793 -0.00138861 239.92 -4.85784 240.565 -8.91929C241.209 -12.9807 240.002 -18.9803 240.002 -18.9803Z" fill="#2FE4AB"/>
<g opacity="0.4">
<path d="M237.653 149.893C237.653 149.893 238.661 145.797 243.151 145.563C247.087 145.357 247.349 143.645 247.349 143.645C247.349 143.645 242.759 139.903 240.669 135.879C239.082 132.827 239.932 128.983 239.932 128.983C239.932 128.983 239.208 131.162 233.791 132.568C232.123 133.001 229.164 132.775 229.164 132.775C229.164 132.775 230.026 138.007 231.699 141.764C233.371 145.52 237.653 149.893 237.653 149.893Z" fill="#2FE4AB"/>
</g>
<g opacity="0.4">
<path d="M321.727 11.4749C321.727 11.4749 321.864 7.11066 326.359 5.90439C330.3 4.84704 330.196 3.0577 330.196 3.0577C330.196 3.0577 324.742 0.258641 321.757 -3.36378C319.493 -6.11158 319.524 -10.1863 319.524 -10.1863C319.524 -10.1863 319.261 -7.8243 314.08 -5.23256C312.484 -4.43432 309.44 -4.02409 309.44 -4.02409C309.44 -4.02409 311.441 1.08624 313.945 4.52882C316.449 7.97139 321.727 11.4749 321.727 11.4749Z" fill="#2FE4AB"/>
</g>
<g opacity="0.4">
<path d="M17.3723 79.4757C17.3723 79.4757 21.4855 80.4104 21.8008 84.8954C22.0772 88.8271 23.7932 89.0582 23.7932 89.0582C23.7932 89.0582 27.4528 84.4022 31.4381 82.2395C34.4612 80.5988 38.3195 81.3793 38.3195 81.3793C38.3195 81.3793 36.1281 80.6948 34.6254 75.3039C34.1626 73.6435 34.3348 70.6807 34.3348 70.6807C34.3348 70.6807 29.1197 71.6368 25.3936 73.3766C21.6675 75.1164 17.3723 79.4757 17.3723 79.4757Z" fill="#2FE4AB"/>
</g>
<g opacity="0.4">
<path d="M174.799 31.1428C174.799 31.1428 171.87 28.1077 174.063 24.1827C175.986 20.742 174.677 19.6087 174.677 19.6087C174.677 19.6087 169.064 21.4994 164.545 21.1257C161.118 20.8423 158.317 18.0759 158.317 18.0759C158.317 18.0759 159.776 19.849 158.08 25.1823C157.557 26.825 155.79 29.2094 155.79 29.2094C155.79 29.2094 160.677 31.2661 164.748 31.8516C168.818 32.4371 174.799 31.1428 174.799 31.1428Z" fill="#2FE4AB"/>
</g>
<g opacity="0.4">
<path d="M147.596 126.183C147.596 126.183 150.877 123.532 154.594 126.062C157.852 128.28 159.096 127.076 159.096 127.076C159.096 127.076 157.707 121.319 158.477 116.851C159.061 113.461 162.063 110.915 162.063 110.915C162.063 110.915 160.168 112.212 155.005 110.053C153.415 109.388 151.195 107.418 151.195 107.418C151.195 107.418 148.716 112.105 147.775 116.108C146.833 120.111 147.596 126.183 147.596 126.183Z" fill="#2FE4AB"/>
</g>
<g opacity="0.4">
<path d="M438.61 90.1013C437.034 92.2802 434.01 92.7879 431.862 91.2342C429.714 89.6805 429.249 86.65 430.825 84.4711C432.401 82.2922 435.424 81.7846 437.572 83.3382C439.721 84.8919 440.185 87.9224 438.61 90.1013Z" fill="#16968E"/>
</g>
<g opacity="0.4">
<path d="M461.304 218.555C459.503 219.87 456.989 219.495 455.693 217.72C454.398 215.945 454.807 213.436 456.608 212.122C458.409 210.808 460.923 211.182 462.219 212.957C463.514 214.732 463.104 217.241 461.304 218.555Z" fill="#16968E"/>
</g>
<g opacity="0.4">
<path d="M572.989 115.401C571.951 116.892 569.914 117.273 568.443 116.249C566.973 115.226 566.621 113.184 567.659 111.692C568.697 110.201 570.734 109.82 572.204 110.844C573.675 111.867 574.026 113.909 572.989 115.401Z" fill="#16968E"/>
</g>
<g opacity="0.4">
<path d="M677.028 66.4171C675.903 67.8443 673.848 68.1027 672.44 66.9936C671.033 65.8846 670.804 63.8254 671.929 62.3981C673.054 60.9709 675.11 60.7125 676.517 61.8216C677.924 62.9306 678.153 64.9899 677.028 66.4171Z" fill="#16968E"/>
</g>
<g opacity="0.4">
<path d="M605.397 115.984C604.777 117.692 602.907 118.583 601.222 117.972C599.538 117.361 598.674 115.478 599.293 113.77C599.913 112.062 601.783 111.171 603.468 111.781C605.152 112.392 606.016 114.275 605.397 115.984Z" fill="#16968E"/>
</g>
<g opacity="0.4">
<path d="M606.384 146.909C605.508 147.471 604.346 147.227 603.792 146.363C603.237 145.5 603.498 144.342 604.374 143.779C605.249 143.217 606.411 143.461 606.966 144.325C607.52 145.188 607.26 146.346 606.384 146.909Z" fill="#16968E"/>
</g>
<g opacity="0.4">
<path d="M533.665 198.048C533.643 199.089 532.792 199.916 531.766 199.894C530.74 199.872 529.924 199.009 529.947 197.969C529.969 196.928 530.82 196.101 531.846 196.123C532.872 196.144 533.687 197.007 533.665 198.048Z" fill="#16968E"/>
</g>
<g opacity="0.4">
<path d="M687.529 69.6914C688.376 70.2964 688.58 71.4657 687.983 72.3009C687.387 73.1361 686.215 73.323 685.368 72.718C684.52 72.1131 684.317 70.9437 684.913 70.1085C685.51 69.2733 686.682 69.0864 687.529 69.6914Z" fill="#16968E"/>
</g>
<g opacity="0.4">
<path d="M685.594 30.785C685.041 32.0831 683.552 32.6937 682.272 32.1478C680.993 31.6019 680.403 30.1048 680.957 28.8068C681.51 27.5087 682.999 26.8981 684.279 27.444C685.559 27.9899 686.148 29.487 685.594 30.785Z" fill="#16968E"/>
</g>
<g opacity="0.4">
<path d="M507.252 27.173C509.324 29.0953 509.468 32.3146 507.573 34.3574C505.677 36.4003 502.456 36.4981 500.384 34.5758C498.312 32.6535 498.169 29.4342 500.064 27.3913C501.959 25.3485 505.18 25.2507 507.252 27.173Z" fill="#16968E"/>
</g>
<g opacity="0.4">
<path d="M728.472 83.876C726.928 86.2428 723.779 86.928 721.445 85.405C719.112 83.882 718.471 80.7237 720.016 78.3568C721.561 75.99 724.71 75.3048 727.043 76.8278C729.377 78.3508 730.017 81.5091 728.472 83.876Z" fill="#16968E"/>
</g>
<g opacity="0.4">
<path d="M688.622 186.563C686.155 187.941 683.048 187.084 681.69 184.651C680.331 182.219 681.232 179.124 683.699 177.746C686.167 176.368 689.274 177.225 690.632 179.658C691.991 182.091 691.09 185.185 688.622 186.563Z" fill="#16968E"/>
</g>
<g opacity="0.4">
<path d="M625.498 50.7013L618.49 54.5508L611.482 58.4003L611.652 50.4065L611.822 42.4128L618.66 46.557L625.498 50.7013Z" fill="#1D5249"/>
</g>
<g opacity="0.4">
<path d="M502.102 143.734L497.212 137.408L492.322 131.083L500.245 130.011L508.168 128.938L505.135 136.336L502.102 143.734Z" fill="#1D5249"/>
</g>
<g opacity="0.4">
<path d="M530.861 159.686L524.063 163.894L517.264 168.103L517.019 160.111L516.773 152.119L523.817 155.902L530.861 159.686Z" fill="#1D5249"/>
</g>
<g opacity="0.4">
<path d="M481.732 192.821L485.358 199.947L488.983 207.074L480.999 206.65L473.014 206.226L477.373 199.523L481.732 192.821Z" fill="#1D5249"/>
</g>
<g opacity="0.4">
<path d="M573.009 129.647L569.438 122.494L565.866 115.34L573.847 115.824L581.828 116.307L577.419 122.977L573.009 129.647Z" fill="#1D5249"/>
</g>
<g opacity="0.4">
<path d="M493.883 235.993L486.238 233.653L478.592 231.313L484.441 225.862L490.29 220.41L492.087 228.202L493.883 235.993Z" fill="#1D5249"/>
</g>
<g opacity="0.4">
<path d="M507.412 25.1369L511.264 19.1676C511.264 19.1676 495.917 21.8983 490.509 13.0285C482.79 0.368155 470.765 -0.0732341 470.765 -0.0732341L466.665 6.20863C466.665 6.20863 475.417 8.17424 484.449 19.4095C493.862 31.1176 507.412 25.1369 507.412 25.1369Z" fill="#B6EA5C"/>
</g>
<g opacity="0.4">
<path d="M409.551 45.0938C409.551 45.0938 412.593 48.2261 410.335 52.2962C408.356 55.864 409.715 57.0329 409.715 57.0329C409.715 57.0329 415.519 55.0576 420.197 55.4298C423.747 55.712 426.655 58.5666 426.655 58.5666C426.655 58.5666 425.139 56.7359 426.877 51.2097C427.413 49.5076 429.234 47.0336 429.234 47.0336C429.234 47.0336 424.169 44.9204 419.953 44.3276C415.738 43.7347 409.551 45.0938 409.551 45.0938Z" fill="#2FE4AB"/>
</g>
<g opacity="0.4">
<path d="M453.584 217.661C453.584 217.661 453.722 213.297 458.217 212.09C462.157 211.033 462.053 209.244 462.053 209.244C462.053 209.244 456.599 206.445 453.615 202.822C451.35 200.074 451.381 196 451.381 196C451.381 196 451.119 198.362 445.938 200.953C444.342 201.752 441.297 202.162 441.297 202.162C441.297 202.162 443.299 207.272 445.803 210.715C448.307 214.157 453.584 217.661 453.584 217.661Z" fill="#2FE4AB"/>
</g>
<g opacity="0.4">
<path d="M525.354 237.116C525.354 237.116 525.491 232.752 529.986 231.546C533.927 230.488 533.823 228.699 533.823 228.699C533.823 228.699 528.369 225.9 525.384 222.277C523.12 219.53 523.151 215.455 523.151 215.455C523.151 215.455 522.888 217.817 517.707 220.409C516.111 221.207 513.067 221.617 513.067 221.617C513.067 221.617 515.068 226.727 517.572 230.17C520.076 233.613 525.354 237.116 525.354 237.116Z" fill="#2FE4AB"/>
</g>
<g opacity="0.4">
<path d="M644.968 202.47C644.968 202.47 641.072 200.498 641.882 195.915C642.591 191.897 640.926 191.234 640.926 191.234C640.926 191.234 636.082 194.991 631.537 196.162C628.089 197.051 624.41 195.298 624.41 195.298C624.41 195.298 626.439 196.536 626.595 202.327C626.642 204.111 625.726 207.043 625.726 207.043C625.726 207.043 631.203 207.392 635.382 206.58C639.56 205.769 644.968 202.47 644.968 202.47Z" fill="#2FE4AB"/>
</g>
<g opacity="0.4">
<path d="M713.434 53.9651C713.434 53.9651 710.797 50.4849 713.534 46.7208C715.934 43.4212 714.728 42.0951 714.728 42.0951C714.728 42.0951 708.727 43.3474 704.129 42.4069C700.64 41.6936 698.103 38.5054 698.103 38.5054C698.103 38.5054 699.383 40.5074 696.984 45.7802C696.245 47.4042 694.135 49.6374 694.135 49.6374C694.135 49.6374 698.904 52.353 703.016 53.4559C707.127 54.5589 713.434 53.9651 713.434 53.9651Z" fill="#2FE4AB"/>
</g>
<g opacity="0.4">
<path d="M685.258 97.097C685.258 97.097 680.968 96.2842 680.474 91.6564C680.041 87.5995 678.257 87.4248 678.257 87.4248C678.257 87.4248 674.646 92.3784 670.604 94.7649C667.538 96.5755 663.518 95.9127 663.518 95.9127C663.518 95.9127 665.81 96.5387 667.567 102.059C668.108 103.759 668.041 106.831 668.041 106.831C668.041 106.831 673.4 105.646 677.189 103.707C680.978 101.767 685.258 97.097 685.258 97.097Z" fill="#2FE4AB"/>
</g>
<g opacity="0.4">
<path d="M735.542 200.959C735.542 200.959 732.357 203.945 728.327 201.617C724.795 199.575 723.602 200.913 723.602 200.913C723.602 200.913 725.475 206.75 725.02 211.422C724.675 214.966 721.77 217.823 721.77 217.823C721.77 217.823 723.627 216.34 729.122 218.175C730.814 218.74 733.256 220.605 733.256 220.605C733.256 220.605 735.458 215.578 736.125 211.374C736.792 207.169 735.542 200.959 735.542 200.959Z" fill="#2FE4AB"/>
</g>
<g opacity="0.4">
<path d="M581.473 48.012C581.473 48.012 577.868 50.4756 574.243 47.5574C571.064 44.9992 569.681 46.1388 569.681 46.1388C569.681 46.1388 570.638 52.1939 569.474 56.7409C568.591 60.1901 565.282 62.5687 565.282 62.5687C565.282 62.5687 567.344 61.3876 572.493 64.0423C574.079 64.86 576.206 67.0765 576.206 67.0765C576.206 67.0765 579.152 62.4457 580.455 58.3931C581.758 54.3406 581.473 48.012 581.473 48.012Z" fill="#2FE4AB"/>
</g>
<g opacity="0.4">
<path d="M533.139 85.6219C533.139 85.6219 529.033 84.135 529.284 79.4876C529.503 75.4136 527.77 74.9564 527.77 74.9564C527.77 74.9564 523.415 79.2704 519.044 80.9815C515.729 82.2796 511.865 80.9838 511.865 80.9838C511.865 80.9838 514.029 81.9676 514.882 87.6976C515.145 89.4624 514.588 92.4837 514.588 92.4837C514.588 92.4837 520.068 92.1695 524.118 90.8595C528.168 89.5496 533.139 85.6219 533.139 85.6219Z" fill="#2FE4AB"/>
</g>
<g opacity="0.4">
<path d="M466.319 49.5981C466.319 49.5981 462.046 50.4947 459.813 46.4114C457.855 42.8317 456.141 43.3553 456.141 43.3553C456.141 43.3553 454.708 49.3158 451.893 53.0712C449.757 55.9201 445.79 56.8518 445.79 56.8518C445.79 56.8518 448.147 56.5495 451.889 60.9724C453.041 62.3347 454.158 65.1965 454.158 65.1965C454.158 65.1965 458.652 62.0452 461.406 58.7995C464.16 55.5539 466.319 49.5981 466.319 49.5981Z" fill="#2FE4AB"/>
</g>
<g opacity="0.4">
<path d="M482.083 239.049C482.083 239.049 478.409 236.69 479.682 232.214C480.797 228.289 479.208 227.46 479.208 227.46C479.208 227.46 474.006 230.703 469.365 231.405C465.845 231.937 462.364 229.818 462.364 229.818C462.364 229.818 464.256 231.256 463.82 237.033C463.686 238.812 462.475 241.636 462.475 241.636C462.475 241.636 467.888 242.542 472.127 242.161C476.367 241.779 482.083 239.049 482.083 239.049Z" fill="#2FE4AB"/>
</g>
<g opacity="0.4">
<path d="M522.503 139.855C522.503 139.855 524.12 135.799 528.757 136.197C532.822 136.545 533.334 134.828 533.334 134.828C533.334 134.828 529.16 130.338 527.589 125.915C526.396 122.56 527.814 118.74 527.814 118.74C527.814 118.74 526.762 120.871 521.008 121.542C519.236 121.748 516.234 121.096 516.234 121.096C516.234 121.096 516.374 126.583 517.555 130.673C518.735 134.762 522.503 139.855 522.503 139.855Z" fill="#2FE4AB"/>
</g>
</svg>
